<?xml version="1.0" encoding="UTF-8" standalone="no"?>
<svg xmlns="http://www.w3.org/2000/svg" version="1.1" width="463.0" height="546.0"
  viewBox="63.5 207.0 463.0 546.0">
  <polyline
    points="236.0,376.0 243.5,364.5 261.5,344.0 304.0,290.5 335.5,250.0 355.5,222.0 365.5,207.0 360.0,215.0 310.0,287.5 252.0,386.5 179.5,508.5 98.5,661.5 76.5,710.0 65.0,742.0 63.5,753.0 95.0,732.0 205.0,623.5 300.0,524.0 353.5,463.0 385.5,426.0 404.5,406.0 399.5,415.5 374.0,457.5 361.0,483.0 357.0,494.5 364.0,495.0 394.0,472.5 439.5,428.5 452.5,415.5 463.5,404.0 457.5,410.0 434.5,437.0 422.0,454.5 417.5,465.5 427.0,462.0 434.5,455.5 441.0,452.0 440.5,454.0 425.5,474.5 416.0,488.5 411.5,496.5 418.0,494.5"
    stroke="#000000" stroke-width="5.0" fill="none" stroke-linecap="round" stroke-linejoin="round" />
  <polyline
    points="333.5,678.0 312.5,653.5 240.0,556.5 205.0,496.0 177.5,452.5 168.0,433.0 190.0,451.0 238.5,498.0 313.5,565.5 384.5,627.5 413.5,652.0 441.0,673.5 447.0,676.0 447.5,646.0 429.5,575.5 401.5,483.0 390.5,446.0 384.0,413.0 386.5,412.0 421.5,430.0 457.0,448.0 471.5,451.5 493.5,445.5 489.5,353.5 469.5,288.0 462.0,267.5 452.5,234.0 456.0,235.5 487.5,264.5 504.0,278.0 522.0,291.0 526.0,292.5 526.5,288.0 524.5,274.0 521.5,264.5 520.5,260.5"
    stroke="#000000" stroke-width="5.0" fill="none" stroke-linecap="round" stroke-linejoin="round" />
</svg>